<?xml version="1.0" encoding="ISO-8859-1"?>
<svg xmlns="http://www.w3.org/2000/svg" viewBox="0 0 1400 700" xmlns:xlink="http://www.w3.org/1999/xlink">
   <title>TV Guide</title>
   <g text-anchor="middle" font-size="20" fill="black">
      <desc>Timeline markers</desc>
      <text x="200" y="70">7:00</text>
      <text x="300" y="70">7:15</text>
      <text x="400" y="70">7:30</text>
      <text x="500" y="70">7:45</text>
      <text x="600" y="70">8:00</text>
      <text x="700" y="70">8:15</text>
      <text x="800" y="70">8:30</text>
      <text x="900" y="70">8:45</text>
      <text x="1000" y="70">9:00</text>
      <text x="1100" y="70">9:15</text>
      <text x="1200" y="70">9:30</text>
      <text x="1300" y="70">9:45</text>
      <text x="1400" y="70">10:00</text>
   </g>
   <g stroke="black" stroke-width="2">
      <desc>Vertical grid lines</desc>
      <line x1="200" y1="80" x2="200" y2="700"/>
      <line x1="300" y1="80" x2="300" y2="700"/>
      <line x1="400" y1="80" x2="400" y2="700"/>
      <line x1="500" y1="80" x2="500" y2="700"/>
      <line x1="600" y1="80" x2="600" y2="700"/>
      <line x1="700" y1="80" x2="700" y2="700"/>
      <line x1="800" y1="80" x2="800" y2="700"/>
      <line x1="900" y1="80" x2="900" y2="700"/>
      <line x1="1000" y1="80" x2="1000" y2="700"/>
      <line x1="1100" y1="80" x2="1100" y2="700"/>
      <line x1="1200" y1="80" x2="1200" y2="700"/>
      <line x1="1300" y1="80" x2="1300" y2="700"/>
      <line x1="1400" y1="80" x2="1400" y2="700"/>
   </g>
   <g transform="translate(0, 100)">
      <desc>BBC1</desc>
      <g>
         <desc>Channel Label</desc>
         <rect x="0" y="0" height="100" width="200" fill="#C00"/>
         <text x="195" y="70" text-anchor="end" font-size="40" fill="yellow">BBC1</text>
      </g>
      <g>
         <desc>Programs</desc>
         <g transform="translate(200.)">
            <rect x="0" y="0" height="100" width="200." fill="#CCC" stroke="black" stroke-width="2"/>
            <text y="0" font-size="20" fill="black">
               <tspan x="0.5em" dy="25" font-weight="bold">A Question Of Sport</tspan>
            </text>
         </g>
         <g transform="translate(400.)">
            <rect x="0" y="0" height="100" width="200." fill="#CCC" stroke="black" stroke-width="2"/>
            <text y="0" font-size="20" fill="black">
               <tspan x="0.5em" dy="25" font-weight="bold">EastEnders</tspan>
            </text>
         </g>
         <g transform="translate(600.)">
            <rect x="0" y="0" height="100" width="300." fill="#CCC" stroke="black" stroke-width="2"/>
            <text y="0" font-size="20" fill="black">
               <tspan x="0.5em" dy="25" font-style="italic">Get Real with Casualty</tspan>
            </text>
         </g>
         <g transform="translate(900.)">
            <rect x="0" y="0" height="100" width="300." fill="#CCC" stroke="black" stroke-width="2"/>
            <text y="0" font-size="20" fill="black">
               <tspan x="0.5em" dy="25" font-weight="bold">The National Lottery</tspan>
            </text>
         </g>
         <g transform="translate(1200.)">
            <rect x="0" y="0" height="100" width="400." fill="#CCC" stroke="black" stroke-width="2"/>
            <text y="0" font-size="20" fill="black">
               <tspan x="0.5em" dy="25" font-weight="bold">Panorama</tspan>
            </text>
         </g>
      </g>
   </g>
   <g transform="translate(0, 200)">
      <desc>BBC2</desc>
      <g>
         <desc>Channel Label</desc>
         <rect x="0" y="0" height="100" width="200" fill="#C00"/>
         <text x="195" y="70" text-anchor="end" font-size="40" fill="yellow">BBC2</text>
      </g>
      <g>
         <desc>Programs</desc>
         <g transform="translate(200.)">
            <rect x="0" y="0" height="100" width="400." fill="#CCC" stroke="black" stroke-width="2"/>
            <text y="0" font-size="20" fill="black">
               <tspan x="0.5em" dy="25" font-weight="bold">Snooker</tspan>
            </text>
         </g>
         <g transform="translate(600.)">
            <rect x="0" y="0" height="100" width="400." fill="#CCC" stroke="black" stroke-width="2"/>
            <text y="0" font-size="20" fill="black">
               <tspan x="0.5em" dy="25" font-weight="bold">Home Front</tspan>
            </text>
         </g>
         <g transform="translate(1000.)">
            <rect x="0" y="0" height="100" width="333.33" fill="#CCC" stroke="black" stroke-width="2"/>
            <text y="0" font-size="20" fill="black">
               <tspan x="0.5em" dy="25" font-weight="bold">Wild Africa</tspan>
            </text>
         </g>
         <g transform="translate(1333.33)">
            <rect x="0" y="0" height="100" width="266.67" fill="#CCC" stroke="black" stroke-width="2"/>
            <text y="0" font-size="20" fill="black">
               <tspan x="0.5em" dy="25" font-weight="bold">Taboo</tspan>
               <tspan x="0.5em" dy="25" font-style="italic">Nakedness</tspan>
            </text>
         </g>
      </g>
   </g>
   <g transform="translate(0, 300)">
      <desc>ITV</desc>
      <g>
         <desc>Channel Label</desc>
         <rect x="0" y="0" height="100" width="200" fill="#C00"/>
         <text x="195" y="70" text-anchor="end" font-size="40" fill="yellow">ITV</text>
      </g>
      <g>
         <desc>Programs</desc>
         <g transform="translate(200.)">
            <rect x="0" y="0" height="100" width="200." fill="#CCC" stroke="black" stroke-width="2"/>
            <text y="0" font-size="20" fill="black">
               <tspan x="0.5em" dy="25" font-weight="bold">Emmerdale</tspan>
            </text>
         </g>
         <g transform="translate(400.)">
            <rect x="0" y="0" height="100" width="200." fill="#CCC" stroke="black" stroke-width="2"/>
            <text y="0" font-size="20" fill="black">
               <tspan x="0.5em" dy="25" font-weight="bold">Coronation Street</tspan>
            </text>
         </g>
         <g transform="translate(600.)">
            <rect x="0" y="0" height="100" width="400." fill="#CCC" stroke="black" stroke-width="2"/>
            <text y="0" font-size="20" fill="black">
               <tspan x="0.5em" dy="25" font-weight="bold">Who Wants to Be a Millionaire?</tspan>
            </text>
         </g>
         <g transform="translate(1000.)">
            <rect x="0" y="0" height="100" width="800." fill="#CCC" stroke="black" stroke-width="2"/>
            <text y="0" font-size="20" fill="black">
               <tspan x="0.5em" dy="25" font-style="italic">Hot Money</tspan>
            </text>
         </g>
      </g>
   </g>
   <g transform="translate(0, 400)">
      <desc>Channel 4</desc>
      <g>
         <desc>Channel Label</desc>
         <rect x="0" y="0" height="100" width="200" fill="#C00"/>
         <text x="195" y="70" text-anchor="end" font-size="40" fill="yellow">Channel 4</text>
      </g>
      <g>
         <desc>Programs</desc>
         <g transform="translate(200.)">
            <rect x="0" y="0" height="100" width="366.67" fill="#CCC" stroke="black" stroke-width="2"/>
            <text y="0" font-size="20" fill="black">
               <tspan x="0.5em" dy="25" font-weight="bold">Channel 4 News</tspan>
            </text>
         </g>
         <g transform="translate(566.67)">
            <rect x="0" y="0" height="100" width="33.33" fill="#CCC" stroke="black" stroke-width="2"/>
            <text y="0" font-size="20" fill="black">
               <tspan x="0.5em" dy="25" font-weight="bold">Slot Art</tspan>
            </text>
         </g>
         <g transform="translate(600.)">
            <rect x="0" y="0" height="100" width="200." fill="#CCC" stroke="black" stroke-width="2"/>
            <text y="0" font-size="20" fill="black">
               <tspan x="0.5em" dy="25" font-weight="bold">Brookside</tspan>
            </text>
         </g>
         <g transform="translate(800.)">
            <rect x="0" y="0" height="100" width="200." fill="#CCC" stroke="black" stroke-width="2"/>
            <text y="0" font-size="20" fill="black">
               <tspan x="0.5em" dy="25" font-weight="bold">Brookside</tspan>
            </text>
         </g>
         <g transform="translate(1000.)">
            <rect x="0" y="0" height="100" width="400." fill="#CCC" stroke="black" stroke-width="2"/>
            <text y="0" font-size="20" fill="black">
               <tspan x="0.5em" dy="25" font-weight="bold">Swallow</tspan>
            </text>
         </g>
      </g>
   </g>
   <g transform="translate(0, 500)">
      <desc>Channel 5</desc>
      <g>
         <desc>Channel Label</desc>
         <rect x="0" y="0" height="100" width="200" fill="#C00"/>
         <text x="195" y="70" text-anchor="end" font-size="40" fill="yellow">Channel 5</text>
      </g>
      <g>
         <desc>Programs</desc>
         <g transform="translate(200.)">
            <rect x="0" y="0" height="100" width="200." fill="#CCC" stroke="black" stroke-width="2"/>
            <text y="0" font-size="20" fill="black">
               <tspan x="0.5em" dy="25" font-weight="bold">The Movie Chart Show</tspan>
            </text>
         </g>
         <g transform="translate(400.)">
            <rect x="0" y="0" height="100" width="200." fill="#CCC" stroke="black" stroke-width="2"/>
            <text y="0" font-size="20" fill="black">
               <tspan x="0.5em" dy="25" font-weight="bold">5 News</tspan>
            </text>
         </g>
         <g transform="translate(600.)">
            <rect x="0" y="0" height="100" width="400." fill="#CCC" stroke="black" stroke-width="2"/>
            <text y="0" font-size="20" fill="black">
               <tspan x="0.5em" dy="25" font-style="italic">The World's Worst Drivers Caught On Tape</tspan>
            </text>
         </g>
         <g transform="translate(1000.)">
            <rect x="0" y="0" height="100" width="766.67" fill="#CCC" stroke="black" stroke-width="2"/>
            <text y="0" font-size="20" fill="black">
               <tspan x="0.5em" dy="25" font-style="italic">Black and White</tspan>
            </text>
         </g>
      </g>
   </g>
   <g transform="translate(0, 600)">
      <desc>Sky One</desc>
      <g>
         <desc>Channel Label</desc>
         <rect x="0" y="0" height="100" width="200" fill="#C00"/>
         <text x="195" y="70" text-anchor="end" font-size="40" fill="yellow">Sky One</text>
      </g>
      <g>
         <desc>Programs</desc>
         <g transform="translate(200.)">
            <rect x="0" y="0" height="100" width="200." fill="#CCC" stroke="black" stroke-width="2"/>
            <text y="0" font-size="20" fill="black">
               <tspan x="0.5em" dy="25" font-weight="bold">The Simpsons</tspan>
            </text>
         </g>
         <g transform="translate(400.)">
            <rect x="0" y="0" height="100" width="200." fill="#CCC" stroke="black" stroke-width="2"/>
            <text y="0" font-size="20" fill="black">
               <tspan x="0.5em" dy="25" font-weight="bold">The Simpsons</tspan>
            </text>
         </g>
         <g transform="translate(600.)">
            <rect x="0" y="0" height="100" width="400." fill="#CCC" stroke="black" stroke-width="2"/>
            <text y="0" font-size="20" fill="black">
               <tspan x="0.5em" dy="25" font-weight="bold">Star Trek: Voyager</tspan>
               <tspan x="0.5em" dy="25" font-style="italic">Renaissance Man</tspan>
            </text>
         </g>
         <g transform="translate(1000.)">
            <rect x="0" y="0" height="100" width="400." fill="#CCC" stroke="black" stroke-width="2"/>
            <text y="0" font-size="20" fill="black">
               <tspan x="0.5em" dy="25" font-weight="bold">Dark Angel</tspan>
            </text>
         </g>
      </g>
   </g>
   <g stroke="black" stroke-width="2">
      <desc>Horizontal grid lines</desc>
      <line x1="0" y1="100" x2="1400" y2="100"/>
      <line x1="0" y1="200" x2="1400" y2="200"/>
      <line x1="0" y1="300" x2="1400" y2="300"/>
      <line x1="0" y1="400" x2="1400" y2="400"/>
      <line x1="0" y1="500" x2="1400" y2="500"/>
      <line x1="0" y1="600" x2="1400" y2="600"/>
      <line x1="0" y1="700" x2="1400" y2="700"/>
   </g>
</svg>